<svg width="18" height="18" viewBox="0 0 18 18" fill="none" xmlns="http://www.w3.org/2000/svg">
<path d="M6.32998 11.9663L6.86193 12.495L6.32998 11.9663C6.06481 12.2331 5.91667 12.594 5.91667 12.9693V16.6585C5.91667 16.8168 5.8541 16.9678 5.74419 17.0784C5.63444 17.1888 5.48656 17.25 5.33333 17.25H2.00075C1.67062 17.2497 1.35317 17.1176 1.11832 16.8813C0.883396 16.645 0.750418 16.3235 0.75 15.9873V5.97153C0.750332 5.86814 0.777101 5.76681 0.827427 5.67732C0.87772 5.5879 0.94971 5.51353 1.03605 5.46094C1.03626 5.46082 1.03646 5.46069 1.03667 5.46056L8.70161 0.833354L8.70171 0.833295C8.79219 0.778657 8.89534 0.75 9.00017 0.75C9.105 0.75 9.20815 0.778656 9.29862 0.833295L9.29872 0.833354L16.9635 5.46045C16.9637 5.46058 16.9639 5.46071 16.9641 5.46084C17.0504 5.51344 17.1224 5.58782 17.1726 5.67723C17.2229 5.7667 17.2497 5.86799 17.25 5.97133C17.25 5.97158 17.25 5.97182 17.25 5.97206L17.25 15.987C17.2497 16.3233 17.1167 16.6449 16.8817 16.8813C16.6468 17.1176 16.3294 17.2497 15.9992 17.25H12.6667C12.5134 17.25 12.3656 17.1888 12.2558 17.0784C12.1459 16.9678 12.0833 16.8168 12.0833 16.6585V12.9693C12.0833 12.594 11.9352 12.2331 11.67 11.9663L11.1381 12.495L11.67 11.9663C11.4047 11.6993 11.0439 11.5485 10.6667 11.5485H7.33333C6.95612 11.5485 6.5953 11.6993 6.32998 11.9663Z" stroke="white" stroke-width="1.5"/>
</svg>
