<svg width="22" height="22" viewBox="0 0 22 22" fill="none" xmlns="http://www.w3.org/2000/svg">
<path d="M11 21C16.523 21 21 16.523 21 11C21 5.477 16.523 1 11 1C5.477 1 1 5.477 1 11C1 16.523 5.477 21 11 21Z" stroke="white" stroke-width="1.5" stroke-linejoin="round"/>
<path d="M11 7.99982C11.3978 7.99982 11.7794 7.84178 12.0607 7.56048C12.342 7.27917 12.5 6.89764 12.5 6.49982C12.5 6.10199 12.342 5.72046 12.0607 5.43916C11.7794 5.15785 11.3978 4.99982 11 4.99982C10.6022 4.99982 10.2206 5.15785 9.93934 5.43916C9.65804 5.72046 9.5 6.10199 9.5 6.49982C9.5 6.89764 9.65804 7.27917 9.93934 7.56048C10.2206 7.84178 10.6022 7.99982 11 7.99982ZM11 16.9998C11.3978 16.9998 11.7794 16.8418 12.0607 16.5605C12.342 16.2792 12.5 15.8976 12.5 15.4998C12.5 15.102 12.342 14.7205 12.0607 14.4392C11.7794 14.1579 11.3978 13.9998 11 13.9998C10.6022 13.9998 10.2206 14.1579 9.93934 14.4392C9.65804 14.7205 9.5 15.102 9.5 15.4998C9.5 15.8976 9.65804 16.2792 9.93934 16.5605C10.2206 16.8418 10.6022 16.9998 11 16.9998ZM6.5 12.4998C6.89782 12.4998 7.27936 12.3418 7.56066 12.0605C7.84196 11.7792 8 11.3976 8 10.9998C8 10.602 7.84196 10.2205 7.56066 9.93916C7.27936 9.65785 6.89782 9.49982 6.5 9.49982C6.10218 9.49982 5.72064 9.65785 5.43934 9.93916C5.15804 10.2205 5 10.602 5 10.9998C5 11.3976 5.15804 11.7792 5.43934 12.0605C5.72064 12.3418 6.10218 12.4998 6.5 12.4998V12.4998ZM15.5 12.4998C15.8978 12.4998 16.2794 12.3418 16.5607 12.0605C16.842 11.7792 17 11.3976 17 10.9998C17 10.602 16.842 10.2205 16.5607 9.93916C16.2794 9.65785 15.8978 9.49982 15.5 9.49982C15.1022 9.49982 14.7206 9.65785 14.4393 9.93916C14.158 10.2205 14 10.602 14 10.9998C14 11.3976 14.158 11.7792 14.4393 12.0605C14.7206 12.3418 15.1022 12.4998 15.5 12.4998Z" stroke="white" stroke-width="1.5" stroke-linejoin="round"/>
<path d="M11 21H21" stroke="white" stroke-width="1.5" stroke-linecap="round"/>
</svg>
